<?xml version="1.0" standalone="no"?>
<!DOCTYPE svg PUBLIC "-//W3C//DTD SVG 20010904//EN"
 "http://www.w3.org/TR/2001/REC-SVG-20010904/DTD/svg10.dtd">
<svg version="1.0" xmlns="http://www.w3.org/2000/svg"
 width="172.000000pt" height="172.000000pt" viewBox="0 0 172.000000 172.000000"
 preserveAspectRatio="xMidYMid meet">
<metadata>
Created by potrace 1.14, written by Peter Selinger 2001-2017
</metadata>
<g transform="translate(0.000000,172.000000) scale(0.100000,-0.100000)"
fill="#000000" stroke="none">
<path d="M377 1624 c-177 -45 -327 -205 -366 -389 -15 -75 -6 -238 19 -320 12
-38 24 -79 27 -90 3 -11 32 -74 64 -140 149 -306 405 -540 646 -590 241 -51
476 49 672 285 110 133 147 239 101 288 -30 32 -69 28 -158 -17 -234 -117
-432 -135 -653 -61 -50 17 -123 51 -162 76 -141 92 -249 236 -243 324 6 82 51
87 250 30 286 -83 361 -79 595 25 73 33 90 37 138 32 69 -7 114 -36 165 -106
69 -94 89 -111 122 -111 73 1 107 74 122 266 16 191 -50 352 -179 437 -71 47
-138 69 -227 73 -136 7 -260 -39 -361 -135 l-59 -57 -61 57 c-127 118 -294
164 -452 123z"/>
</g>
</svg>
